HIERARCHY
ROOT Hips
{
	OFFSET 0.00000 0.00000 0.00000
	CHANNELS 6 Xposition Yposition Zposition Zrotation Yrotation Xrotation 
	JOINT LHipJoint
	{
		OFFSET 0 0 0
		CHANNELS 3 Zrotation Yrotation Xrotation
		JOINT LeftUpLeg
		{
			OFFSET 1.37590 -1.78394 0.89329
			CHANNELS 3 Zrotation Yrotation Xrotation
			JOINT LeftLeg
			{
				OFFSET 2.47928 -6.81178 0.00000
				CHANNELS 3 Zrotation Yrotation Xrotation
				JOINT LeftFoot
				{
					OFFSET 2.63345 -7.23535 0.00000
					CHANNELS 3 Zrotation Yrotation Xrotation
					JOINT LeftToeBase
					{
						OFFSET 0.23938 -0.65768 2.27012
						CHANNELS 3 Zrotation Yrotation Xrotation
						End Site
						{
							OFFSET 0.00000 -0.00000 1.18363
						}
					}
				}
			}
		}
	}
	JOINT RHipJoint
	{
		OFFSET 0 0 0
		CHANNELS 3 Zrotation Yrotation Xrotation
		JOINT RightUpLeg
		{
			OFFSET -1.33617 -1.78394 0.89329
			CHANNELS 3 Zrotation Yrotation Xrotation
			JOINT RightLeg
			{
				OFFSET -2.56922 -7.05888 0.00000
				CHANNELS 3 Zrotation Yrotation Xrotation
				JOINT RightFoot
				{
					OFFSET -2.56568 -7.04915 0.00000
					CHANNELS 3 Zrotation Yrotation Xrotation
					JOINT RightToeBase
					{
						OFFSET -0.27533 -0.75646 2.18105
						CHANNELS 3 Zrotation Yrotation Xrotation
						End Site
						{
							OFFSET -0.00000 -0.00000 1.15233
						}
					}
				}
			}
		}
	}
	JOINT LowerBack
	{
		OFFSET 0 0 0
		CHANNELS 3 Zrotation Yrotation Xrotation
		JOINT Spine
		{
			OFFSET 0.06190 2.15152 -0.00935
			CHANNELS 3 Zrotation Yrotation Xrotation
			JOINT Spine1
			{
				OFFSET 0.06334 2.15332 0.00872
				CHANNELS 3 Zrotation Yrotation Xrotation
				JOINT Neck
				{
					OFFSET 0 0 0
					CHANNELS 3 Zrotation Yrotation Xrotation
					JOINT Neck1
					{
						OFFSET -0.04202 1.66908 0.23524
						CHANNELS 3 Zrotation Yrotation Xrotation
						JOINT Head
						{
							OFFSET 0.07510 1.69357 -0.24440
							CHANNELS 3 Zrotation Yrotation Xrotation
							End Site
							{
								OFFSET 0.02556 1.71719 -0.11000
							}
						}
					}
				}
				JOINT LeftShoulder
				{
					OFFSET 0 0 0
					CHANNELS 3 Zrotation Yrotation Xrotation
					JOINT LeftArm
					{
						OFFSET 3.67168 1.26306 -0.41342
						CHANNELS 3 Zrotation Yrotation Xrotation
						JOINT LeftForeArm
						{
							OFFSET 4.68510 -0.00000 -0.00000
							CHANNELS 3 Zrotation Yrotation Xrotation
							JOINT LeftHand
							{
								OFFSET 3.39626 -0.00000 -0.00000
								CHANNELS 3 Zrotation Yrotation Xrotation
								JOINT LeftFingerBase
								{
									OFFSET 0 0 0
									CHANNELS 3 Zrotation Yrotation Xrotation
									JOINT LeftHandIndex1
									{
										OFFSET 0.48608 -0.00000 -0.00000
										CHANNELS 3 Zrotation Yrotation Xrotation
										End Site
										{
											OFFSET 0.39189 -0.00000 -0.00000
										}
									}
								}
								JOINT LThumb
								{
									OFFSET 0 0 0
									CHANNELS 3 Zrotation Yrotation Xrotation
									End Site
									{
										OFFSET 0.39787 -0.00000 0.39787
									}
								}
							}
						}
					}
				}
				JOINT RightShoulder
				{
					OFFSET 0 0 0
					CHANNELS 3 Zrotation Yrotation Xrotation
					JOINT RightArm
					{
						OFFSET -3.04136 1.42992 -0.76390
						CHANNELS 3 Zrotation Yrotation Xrotation
						JOINT RightForeArm
						{
							OFFSET -5.55576 -0.00000 -0.00000
							CHANNELS 3 Zrotation Yrotation Xrotation
							JOINT RightHand
							{
								OFFSET -3.32774 -0.00000 -0.00000
								CHANNELS 3 Zrotation Yrotation Xrotation
								JOINT RightFingerBase
								{
									OFFSET 0 0 0
									CHANNELS 3 Zrotation Yrotation Xrotation
									JOINT RightHandIndex1
									{
										OFFSET -0.50763 -0.00000 -0.00000
										CHANNELS 3 Zrotation Yrotation Xrotation
										End Site
										{
											OFFSET -0.40926 -0.00000 -0.00000
										}
									}
								}
								JOINT RThumb
								{
									OFFSET 0 0 0
									CHANNELS 3 Zrotation Yrotation Xrotation
									End Site
									{
										OFFSET -0.41551 -0.00000 0.41551
									}
								}
							}
						}
					}
				}
			}
		}
	}
}
MOTION
Frames: 6
Frame Time: .0083333
33.1258 17.7075 6.1892 0 0 0 0 0 0 -21 0 0 0 0 0 0 0 0 0 0 0 0 0 0 21 0 0 0 0 0 0 0 0 0 0 0 0 0 0 0 0 0 0 0 0 0 0 -16 0 0 21 0 0 11 0 0 0 -8 0 0 0 0 0 0 0 0 0 0 0 0 0 0 0 0 0 0 0 0 8 0 0 0 0 0 0 0 0 0 0 0 0 0 0 0 0 0
33.1258 17.7075 6.1892 -139.0700 -85.9225 146.5300 0.0000 0.0000 0.0000 -20.7328 -6.1977 -4.5204 0.5211 4.6263 12.8457 0.3733 -0.8499 -11.2746 0.1520 -2.5120 -6.9229 0.0000 0.0000 0.0000 17.1667 5.3934 -35.1575 -6.1913 -14.6112 45.7447 0.4150 -14.3669 -14.7294 -0.0297 -1.1132 3.0605 0.2855 -0.7052 -0.5548 2.6304 -0.9555 -1.1508 2.5388 -0.4822 -0.8276 -4.8996 -4.0758 -8.9829 4.9896 -6.5882 23.2845 1.7962 -3.2225 9.0917 0.0000 -0.0000 0.0000 -96.3437 -22.1562 57.1675 36.5382 -45.8798 -15.9076 -0.0000 -0.0000 0.7617 6.1591 21.5717 2.2721 -7.1250 0.0000 -0.0000 -22.3468 50.2834 -3.0431 0.0000 -0.0000 0.0000 71.7661 20.8722 64.1948 -50.5901 53.2307 -26.6461 0.0000 0.0000 19.1853 -18.6878 -6.7188 2.2662 7.1250 -0.0000 -0.0000 6.8432 -36.9924 1.3559
33.0072 17.6990 6.1882 -138.1430 -86.2142 145.6110 0.0000 0.0000 0.0000 -20.9915 -6.1682 -4.0690 0.5201 4.6221 12.8339 0.3932 -1.0735 -11.5188 0.1642 -2.6105 -7.1961 0.0000 0.0000 0.0000 16.9282 5.4200 -35.4171 -5.6577 -14.0882 43.5918 0.4350 -14.4604 -14.5666 -0.0229 -0.9760 2.6827 0.2762 -0.7135 -0.6226 2.5080 -0.9715 -0.7924 2.4132 -0.4920 -0.4235 -4.7551 -4.3031 -9.8448 5.1403 -6.9059 23.2588 1.7691 -3.3147 9.2640 -0.0000 0.0000 0.0000 -95.9649 -22.8109 57.4372 35.3857 -45.0856 -15.0858 -0.0000 -0.0000 3.8566 7.1401 20.6542 2.5300 -7.1250 0.0000 -0.0000 -20.9949 49.5805 -2.4685 -0.0000 0.0000 0.0000 71.7670 20.3305 62.8812 -49.5726 52.8216 -25.8332 0.0000 0.0000 18.0472 -17.5268 -8.1782 2.5723 7.1250 -0.0000 -0.0000 8.0321 -38.4347 1.3087
32.8909 17.6906 6.1834 -136.5110 -86.4394 144.0390 0.0000 0.0000 0.0000 -21.1150 -6.1205 -3.7468 0.5262 4.6485 12.9086 0.4151 -1.2979 -11.7870 0.1794 -2.7285 -7.5239 0.0000 0.0000 0.0000 16.7778 5.5895 -35.6243 -5.1285 -13.5270 41.3749 0.4520 -14.5171 -14.3741 -0.0246 -1.0132 2.7851 0.0866 -0.7793 -0.2795 2.6014 -1.0515 -0.9259 2.6227 -0.5288 -0.7444 -4.9060 -4.3949 -9.8985 5.2256 -7.0330 23.3308 1.8072 -3.3772 9.3156 -0.0000 -0.0000 0.0000 -95.7414 -22.4403 57.3076 34.4200 -44.3935 -14.4061 -0.0000 -0.0000 6.8756 8.0921 19.7376 2.7490 -7.1250 0.0000 -0.0000 -19.7019 48.8599 -1.9447 -0.0000 -0.0000 0.0000 71.6541 19.0600 61.9639 -48.6177 52.4225 -25.0744 0.0000 0.0000 16.8217 -16.9409 -9.6952 2.9365 7.1250 -0.0000 -0.0000 8.7874 -39.9555 1.1025
32.7707 17.6761 6.1784 -135.7680 -86.6526 143.4600 0.0000 0.0000 0.0000 -21.2708 -6.0554 -3.4463 0.5187 4.6160 12.8165 0.4341 -1.5150 -12.0119 0.1793 -2.7272 -7.5200 0.0000 0.0000 0.0000 16.5940 5.7750 -35.8881 -4.6003 -12.9190 39.0660 0.4883 -14.6017 -13.8614 -0.0201 -0.9159 2.5173 0.0157 -0.8330 -0.4940 2.5728 -1.1269 -0.8721 2.6289 -0.5672 -0.5648 -4.9899 -4.4560 -9.6147 5.4433 -7.1333 22.9480 1.8914 -3.4146 9.1462 0.0000 0.0000 0.0000 -95.3783 -22.2676 57.1835 33.3394 -43.5893 -13.6555 -0.0000 -0.0000 9.1604 8.7233 19.0317 2.8644 -7.1250 0.0000 -0.0000 -18.8208 48.2812 -1.5754 0.0000 0.0000 0.0000 71.9096 17.9997 60.7575 -46.9557 51.6914 -23.7636 0.0000 0.0000 15.8528 -16.5083 -11.1339 3.2755 7.1250 -0.0000 -0.0000 9.4372 -41.3940 0.8478
32.6510 17.6635 6.1733 -134.8540 -86.8783 142.6590 0.0000 0.0000 0.0000 -21.4421 -5.9888 -3.1140 0.5154 4.6014 12.7752 0.4542 -1.7305 -12.2495 0.1850 -2.7703 -7.6399 0.0000 0.0000 0.0000 16.3731 5.9724 -36.0723 -4.0973 -12.2888 36.7614 0.5147 -14.6454 -13.4238 -0.0180 -0.8663 2.3809 -0.0951 -0.8775 -0.5364 2.5615 -1.1870 -0.8143 2.6781 -0.5972 -0.4771 -5.0515 -4.5543 -9.6135 5.6082 -7.2759 22.7355 1.9420 -3.4679 9.0898 0.0000 -0.0000 0.0000 -95.0540 -22.1501 57.0933 32.3154 -42.7972 -12.9546 -0.0000 -0.0000 11.5174 9.4718 18.5458 3.0375 -7.1250 0.0000 -0.0000 -17.9368 47.9222 -1.3335 0.0000 -0.0000 0.0000 72.0913 16.9925 59.4773 -45.5168 51.0192 -22.6398 0.0000 0.0000 14.8201 -16.1774 -12.6594 3.6378 7.1250 -0.0000 -0.0000 10.0560 -42.9190 0.5221
